<svg width="320" height="320" viewBox="0 0 320 320" fill="none" xmlns="http://www.w3.org/2000/svg">
<rect width="320" height="320" fill="url(#paint0_linear_4766_893)"/>
<path d="M221.312 160C221.312 126.138 193.862 98.6875 160 98.6875C126.138 98.6875 98.6875 126.138 98.6875 160C98.6875 193.862 126.138 221.312 160 221.312V241.75C114.851 241.75 78.25 205.149 78.25 160C78.25 114.851 114.851 78.25 160 78.25C205.149 78.25 241.75 114.851 241.75 160C241.75 205.149 205.149 241.75 160 241.75V221.312C193.862 221.312 221.312 193.862 221.312 160Z" fill="white"/>
<path d="M262.188 160C262.188 103.563 216.437 57.8125 160 57.8125C103.563 57.8125 57.8125 103.563 57.8125 160C57.8125 216.437 103.563 262.188 160 262.188V269C99.801 269 51 220.199 51 160C51 99.801 99.801 51 160 51C220.199 51 269 99.801 269 160C269 220.199 220.199 269 160 269V262.188C216.437 262.188 262.188 216.437 262.188 160Z" fill="white"/>
<path d="M160 112.312C172.302 112.312 183.516 116.972 191.974 124.622C196.423 128.645 192.207 134.505 186.412 132.954L170.917 128.805C163.65 126.86 156.18 131.172 154.232 138.438C152.284 145.706 156.598 153.182 163.865 155.13L196.77 163.945C201.36 165.175 207.108 168.817 205.777 173.379C199.996 193.204 181.692 207.688 160 207.688C147.694 207.687 136.476 203.026 128.016 195.372C123.568 191.348 127.785 185.489 133.579 187.042L149.083 191.195C156.35 193.141 163.819 188.828 165.768 181.562C167.715 174.294 163.403 166.818 156.135 164.87L123.23 156.055C118.64 154.826 112.893 151.177 114.224 146.616C120.007 126.794 138.31 112.313 160 112.312Z" fill="white"/>
<defs>
<linearGradient id="paint0_linear_4766_893" x1="160" y1="0" x2="160" y2="320" gradientUnits="userSpaceOnUse">
<stop stop-color="#FFC670"/>
<stop offset="1" stop-color="#C54D65"/>
</linearGradient>
</defs>
</svg>
