<svg width="240" height="240" viewBox="0 0 240 240" fill="none" xmlns="http://www.w3.org/2000/svg">
<circle cx="120" cy="120" r="84" stroke="white" stroke-width="24"/>
<circle cx="120" cy="120" r="114" stroke="white" stroke-width="12"/>
<path d="M119.672 70C130.659 70 140.817 73.5442 149.067 79.5512C154.578 83.5645 150.16 90.2522 143.574 88.4877L133.925 85.9023C125.923 83.7582 117.698 88.5068 115.554 96.5088C113.41 104.511 118.158 112.736 126.16 114.88L159.002 123.68C163.7 124.938 169.166 128.65 167.872 133.339C162.035 154.477 142.667 170 119.672 170C108.868 170 98.8645 166.573 90.689 160.747C85.1172 156.776 89.511 150.064 96.1199 151.835L103.002 153.68C111.004 155.824 119.229 151.075 121.373 143.073C123.517 135.071 118.768 126.846 110.767 124.702L77.9248 115.902C74.1043 114.879 70.1915 111.746 71.1448 107.907C76.5522 86.1355 96.2273 70 119.672 70Z" fill="white"/>
</svg>
