<svg width="240" height="240" viewBox="0 0 240 240" fill="none" xmlns="http://www.w3.org/2000/svg">
<circle cx="120" cy="120" r="82" stroke="white" stroke-width="24"/>
<circle cx="120" cy="120" r="114" stroke="white" stroke-width="12"/>
<path d="M162.857 95.2028C166.792 102.019 168.94 109.377 169.446 116.733C170.392 130.474 157.09 127.455 157.09 113.682C157.09 105.398 150.374 98.6819 142.09 98.6819C133.806 98.682 127.091 105.398 127.09 113.682L127.091 155.894C127.091 163.801 121.231 170.804 113.385 169.822C98.3788 167.945 84.3984 159.309 76.254 145.203C72.0049 137.843 69.8396 129.852 69.575 121.913C69.1605 109.481 81.2403 112.234 81.2402 124.673C81.2402 132.957 87.9563 139.674 96.2405 139.674C104.525 139.674 111.241 132.957 111.241 124.673L111.241 84.4165C111.241 76.6057 116.956 69.6546 124.724 70.4681C140.108 72.0793 154.531 80.7827 162.857 95.2028Z" fill="white"/>
</svg>
